<svg width="214" height="30" viewBox="0 0 214 30" fill="none" xmlns="http://www.w3.org/2000/svg">
<path d="M4.615 4.675V29H0.625V4.675H4.615ZM19.5835 9.4C21.1002 9.4 22.4535 9.715 23.6435 10.345C24.8568 10.975 25.8018 11.9083 26.4785 13.145C27.1552 14.3817 27.4935 15.875 27.4935 17.625V29H23.5385V18.22C23.5385 16.4933 23.1068 15.175 22.2435 14.265C21.3802 13.3317 20.2018 12.865 18.7085 12.865C17.2152 12.865 16.0252 13.3317 15.1385 14.265C14.2752 15.175 13.8435 16.4933 13.8435 18.22V29H9.85352V9.715H13.8435V11.92C14.4968 11.1267 15.3252 10.5083 16.3285 10.065C17.3552 9.62167 18.4402 9.4 19.5835 9.4ZM37.238 12.97V23.645C37.238 24.3683 37.4013 24.8933 37.728 25.22C38.078 25.5233 38.6613 25.675 39.478 25.675H41.928V29H38.778C36.9813 29 35.6047 28.58 34.648 27.74C33.6913 26.9 33.213 25.535 33.213 23.645V12.97H30.938V9.715H33.213V4.92H37.238V9.715H41.928V12.97H37.238ZM63.2805 18.885C63.2805 19.6083 63.2338 20.2617 63.1405 20.845H48.4055C48.5221 22.385 49.0938 23.6217 50.1205 24.555C51.1471 25.4883 52.4071 25.955 53.9005 25.955C56.0471 25.955 57.5638 25.0567 58.4505 23.26H62.7555C62.1721 25.0333 61.1105 26.4917 59.5705 27.635C58.0538 28.755 56.1638 29.315 53.9005 29.315C52.0571 29.315 50.4005 28.9067 48.9305 28.09C47.4838 27.25 46.3405 26.0833 45.5005 24.59C44.6838 23.0733 44.2755 21.3233 44.2755 19.34C44.2755 17.3567 44.6721 15.6183 45.4655 14.125C46.2821 12.6083 47.4138 11.4417 48.8605 10.625C50.3305 9.80833 52.0105 9.4 53.9005 9.4C55.7205 9.4 57.3421 9.79667 58.7655 10.59C60.1888 11.3833 61.2971 12.5033 62.0905 13.95C62.8838 15.3733 63.2805 17.0183 63.2805 18.885ZM59.1155 17.625C59.0921 16.155 58.5671 14.9767 57.5405 14.09C56.5138 13.2033 55.2421 12.76 53.7255 12.76C52.3488 12.76 51.1705 13.2033 50.1905 14.09C49.2105 14.9533 48.6271 16.1317 48.4405 17.625H59.1155ZM71.197 12.515C71.7804 11.535 72.5504 10.7767 73.507 10.24C74.487 9.68 75.642 9.4 76.972 9.4V13.53H75.957C74.3937 13.53 73.2037 13.9267 72.387 14.72C71.5937 15.5133 71.197 16.89 71.197 18.85V29H67.207V9.715H71.197V12.515ZM90.3696 9.4C91.8863 9.4 93.2396 9.715 94.4296 10.345C95.643 10.975 96.588 11.9083 97.2646 13.145C97.9413 14.3817 98.2797 15.875 98.2797 17.625V29H94.3246V18.22C94.3246 16.4933 93.893 15.175 93.0296 14.265C92.1663 13.3317 90.988 12.865 89.4946 12.865C88.0013 12.865 86.8113 13.3317 85.9246 14.265C85.0613 15.175 84.6296 16.4933 84.6296 18.22V29H80.6396V9.715H84.6296V11.92C85.283 11.1267 86.1113 10.5083 87.1146 10.065C88.1413 9.62167 89.2263 9.4 90.3696 9.4ZM118.909 4.43V9.225H108.899V14.405H116.389V19.06H108.899V29H102.914V4.43H118.909ZM125.065 7.44C124.015 7.44 123.151 7.13667 122.475 6.53C121.821 5.9 121.495 5.13 121.495 4.22C121.495 3.28667 121.821 2.51667 122.475 1.91C123.151 1.28 124.015 0.964998 125.065 0.964998C126.091 0.964998 126.931 1.28 127.585 1.91C128.261 2.51667 128.6 3.28667 128.6 4.22C128.6 5.13 128.261 5.9 127.585 6.53C126.931 7.13667 126.091 7.44 125.065 7.44ZM128.04 9.47V29H122.055V9.47H128.04ZM144.277 9.26C146.564 9.26 148.384 10.0067 149.737 11.5C151.114 12.97 151.802 15 151.802 17.59V29H145.852V18.395C145.852 17.0883 145.514 16.0733 144.837 15.35C144.16 14.6267 143.25 14.265 142.107 14.265C140.964 14.265 140.054 14.6267 139.377 15.35C138.7 16.0733 138.362 17.0883 138.362 18.395V29H132.377V9.47H138.362V12.06C138.969 11.1967 139.785 10.52 140.812 10.03C141.839 9.51667 142.994 9.26 144.277 9.26ZM154.771 19.2C154.771 17.1933 155.144 15.4317 155.891 13.915C156.661 12.3983 157.699 11.2317 159.006 10.415C160.313 9.59833 161.771 9.19 163.381 9.19C164.664 9.19 165.831 9.45833 166.881 9.995C167.954 10.5317 168.794 11.255 169.401 12.165V3.1H175.386V29H169.401V26.2C168.841 27.1333 168.036 27.88 166.986 28.44C165.959 29 164.758 29.28 163.381 29.28C161.771 29.28 160.313 28.8717 159.006 28.055C157.699 27.215 156.661 26.0367 155.891 24.52C155.144 22.98 154.771 21.2067 154.771 19.2ZM169.401 19.235C169.401 17.7417 168.981 16.5633 168.141 15.7C167.324 14.8367 166.321 14.405 165.131 14.405C163.941 14.405 162.926 14.8367 162.086 15.7C161.269 16.54 160.861 17.7067 160.861 19.2C160.861 20.6933 161.269 21.8833 162.086 22.77C162.926 23.6333 163.941 24.065 165.131 24.065C166.321 24.065 167.324 23.6333 168.141 22.77C168.981 21.9067 169.401 20.7283 169.401 19.235ZM198.126 18.92C198.126 19.48 198.091 20.0633 198.021 20.67H184.476C184.569 21.8833 184.954 22.8167 185.631 23.47C186.331 24.1 187.183 24.415 188.186 24.415C189.679 24.415 190.718 23.785 191.301 22.525H197.671C197.344 23.8083 196.749 24.9633 195.886 25.99C195.046 27.0167 193.984 27.8217 192.701 28.405C191.418 28.9883 189.983 29.28 188.396 29.28C186.483 29.28 184.779 28.8717 183.286 28.055C181.793 27.2383 180.626 26.0717 179.786 24.555C178.946 23.0383 178.526 21.265 178.526 19.235C178.526 17.205 178.934 15.4317 179.751 13.915C180.591 12.3983 181.758 11.2317 183.251 10.415C184.744 9.59833 186.459 9.19 188.396 9.19C190.286 9.19 191.966 9.58667 193.436 10.38C194.906 11.1733 196.049 12.305 196.866 13.775C197.706 15.245 198.126 16.96 198.126 18.92ZM192.001 17.345C192.001 16.3183 191.651 15.5017 190.951 14.895C190.251 14.2883 189.376 13.985 188.326 13.985C187.323 13.985 186.471 14.2767 185.771 14.86C185.094 15.4433 184.674 16.2717 184.511 17.345H192.001ZM207.268 12.725C207.968 11.6517 208.843 10.8117 209.893 10.205C210.943 9.575 212.11 9.26 213.393 9.26V15.595H211.748C210.255 15.595 209.135 15.9217 208.388 16.575C207.642 17.205 207.268 18.325 207.268 19.935V29H201.283V9.47H207.268V12.725Z" fill="#F5F6F7"/>
</svg>
